<?xml version="1.0" encoding="utf-8"?>
<!-- Generator: Adobe Illustrator 27.4.1, SVG Export Plug-In . SVG Version: 6.00 Build 0)  -->
<svg version="1.1" id="Layer_1" xmlns="http://www.w3.org/2000/svg" xmlns:xlink="http://www.w3.org/1999/xlink" x="0px" y="0px"
	 width="1725.3px" height="520px" viewBox="0 0 1725.3 520" style="enable-background:new 0 0 1725.3 520;" xml:space="preserve">
<style type="text/css">
	.st0{fill:url(#SVGID_1_);}
	.st1{fill:url(#SVGID_00000147196093082706071180000016503208995778410681_);}
	.st2{fill:url(#SVGID_00000150804534421820653130000001247421230570710920_);}
	.st3{fill:url(#SVGID_00000122686098456355677350000002540319586968938166_);}
	.st4{fill:url(#SVGID_00000173844212601456799680000002761831990850681745_);}
	.st5{fill:url(#SVGID_00000025434149523480476520000006650688186923462034_);}
	.st6{fill:url(#SVGID_00000129190596038761184080000008839459466951791288_);}
	.st7{fill:url(#SVGID_00000013908136601256288480000015440053281405983679_);}
	.st8{fill:url(#SVGID_00000005251299213753969160000010191456266207622031_);}
	.st9{fill:url(#SVGID_00000101803812667141865680000011396060372766501794_);}
	.st10{fill:url(#SVGID_00000118393273845818755930000010585034557669900688_);}
	.st11{fill:url(#SVGID_00000018197175110162407500000016613712635229641636_);}
	.st12{fill:url(#SVGID_00000066480262447307710800000005025101221871636615_);}
	.st13{fill:url(#SVGID_00000154384436186052078210000006089777028962582421_);}
	.st14{fill:url(#SVGID_00000105408840031779998340000009303572485734438040_);}
	.st15{fill:url(#SVGID_00000017512496572139142330000003834752901397744033_);}
	.st16{fill:url(#SVGID_00000105398484974516993030000010401522877070067584_);}
	.st17{fill:url(#SVGID_00000078732618828265959210000009582450556888177078_);}
	.st18{fill:url(#SVGID_00000000922180180025897170000012204530254988080305_);}
	.st19{fill:url(#SVGID_00000114761276810397923420000004871647491989353873_);}
	.st20{fill:url(#SVGID_00000061446974797423060790000015437631933569425081_);}
</style>
<g>
	<linearGradient id="SVGID_1_" gradientUnits="userSpaceOnUse" x1="3.5273" y1="63.3292" x2="473.6731" y2="63.3292">
		<stop  offset="0" style="stop-color:#F69220"/>
		<stop  offset="0.2863" style="stop-color:#F68E20"/>
		<stop  offset="0.5401" style="stop-color:#F48421"/>
		<stop  offset="0.7807" style="stop-color:#F37221"/>
		<stop  offset="1" style="stop-color:#F05A22"/>
	</linearGradient>
	<path class="st0" d="M72.5,106.3c31.7,9.1,86.2,19.9,166.1,19.9c79.7,0,134.3-10.8,166.1-19.9c22.7-6.5,61.6-20.1,68.2-38.3
		c1.1-3,1.1-6.2,0-9.2c-6.5-18.3-45.5-31.8-68.2-38.3c-31.8-9.2-86.3-20-166.2-20c-79.7,0-134.2,10.8-166,19.9
		C49.9,26.8,10.8,40.5,4.4,58.8c-1.1,3-1.1,6.2,0,9.2C10.8,86.1,49.9,99.8,72.5,106.3z"/>
	
		<linearGradient id="SVGID_00000150077493710294392600000003712645313472174504_" gradientUnits="userSpaceOnUse" x1="1.6559" y1="146.1893" x2="217.4105" y2="146.1893" gradientTransform="matrix(1 0 0 -1 0 522)">
		<stop  offset="0" style="stop-color:#68B2FF"/>
		<stop  offset="1" style="stop-color:#0065C3"/>
	</linearGradient>
	<path style="fill:url(#SVGID_00000150077493710294392600000003712645313472174504_);" d="M197.6,370.9c0-13.7,1-25.4,3.2-35.7
		c0.8-3.9-0.1-7.9-2.5-11.1c-2.4-3.1-6.1-5.1-10-5.3c-70.6-4.3-131.2-17.3-166.8-35.5c-7.3-3.8-17-0.5-19.9,9.4V410l0,0
		c3.8,17.9,44.4,32.5,60.6,37.7c26.6,8.6,72.9,19.4,140.9,22.2c0.2,0,0.4,0,0.6,0c4.6,0,9-2.4,11.5-6.3c2.6-4.1,2.9-9.2,0.7-13.6
		C203.8,426.2,197.6,399.5,197.6,370.9z"/>
	
		<linearGradient id="SVGID_00000059308906803644677490000008141021518663476115_" gradientUnits="userSpaceOnUse" x1="1.6559" y1="318.5039" x2="473.4486" y2="318.5039" gradientTransform="matrix(1 0 0 -1 0 522)">
		<stop  offset="0" style="stop-color:#68B2FF"/>
		<stop  offset="1" style="stop-color:#0065C3"/>
	</linearGradient>
	<path style="fill:url(#SVGID_00000059308906803644677490000008141021518663476115_);" d="M62.5,275.6
		c26.8,8.6,73.2,19.5,141.5,22.2c0.2,0,0.4,0,0.6,0c5.1,0,9.8-2.8,12.1-7.4c29.9-57.9,91.6-95.3,157.1-95.3
		c27.9,0,54.8,6.5,79.7,19.3c4.2,2.2,9.3,2,13.4-0.5c4.1-2.5,6.5-6.9,6.5-11.7l-0.2-79.1c0-4.7-2.5-9.1-6.5-11.6s-9-2.7-13.3-0.6
		c-46.4,23.3-127.1,37.1-215.8,37.1c-88.8,0-171-14.4-218.8-38.4C8.8,107.9,1.7,115,1.7,123.2v114.6l0,0
		C5.4,255.6,46.3,270.4,62.5,275.6z"/>
	<g>
		
			<linearGradient id="SVGID_00000129925486647765660840000004391123611784722109_" gradientUnits="userSpaceOnUse" x1="144.6804" y1="295.9911" x2="608.3354" y2="295.9911">
			<stop  offset="0" style="stop-color:#F69220"/>
			<stop  offset="0.2863" style="stop-color:#F68E20"/>
			<stop  offset="0.5401" style="stop-color:#F48421"/>
			<stop  offset="0.7807" style="stop-color:#F37221"/>
			<stop  offset="1" style="stop-color:#F05A22"/>
		</linearGradient>
		<path style="fill:url(#SVGID_00000129925486647765660840000004391123611784722109_);" d="M521.7,354.7
			c-2.5-23.1-10.6-45.3-23.3-64.7c-12.5-19.1-29.3-35.1-48.9-46.9c-36.5-21.9-81.8-27-122.3-13.5c-26.9,9.1-51.2,25.9-69,48
			c-11.8,14.6-20.8,31.3-26.4,49.2c-2.8,8.9-5.5,18.8-5.9,28.1c-0.2,5.2,1.9,10,6.4,12.8c2.2,1.4,4.8,2,7.5,2h67.9
			c3.6,0,7-1.4,9.5-3.9l47-45.6c6.5-6.3,17-6.1,23.2,0.6l41.3,44.5c2.6,2.8,6.2,4.4,10,4.4h69.2c2.6,0,5.2-0.6,7.4-2
			C519.9,365,522.3,359.9,521.7,354.7z"/>
		
			<linearGradient id="SVGID_00000150103775877162289540000014229611504809038225_" gradientUnits="userSpaceOnUse" x1="144.6804" y1="436.2585" x2="608.3354" y2="436.2585">
			<stop  offset="0" style="stop-color:#F69220"/>
			<stop  offset="0.2863" style="stop-color:#F68E20"/>
			<stop  offset="0.5401" style="stop-color:#F48421"/>
			<stop  offset="0.7807" style="stop-color:#F37221"/>
			<stop  offset="1" style="stop-color:#F05A22"/>
		</linearGradient>
		<path style="fill:url(#SVGID_00000150103775877162289540000014229611504809038225_);" d="M503.2,396.6H421l-36.4-39.2
			c-2.5-2.7-6-4.3-9.7-4.4c-3.7-0.1-7.2,1.3-9.9,3.8l-41,39.8h-79.5c-4.3,0-8.4,2.1-11,5.5c-4.2,5.7-2.2,12.4,0,18.5
			c8.4,23.3,22.4,44.2,40.8,60.8c20.5,18.4,45.7,30.7,72.8,35.7c37.8,7,78.2-1.5,110.2-23.2c14.8-10,27.6-22.7,37.9-37.1
			c5.3-7.5,9.9-15.5,13.8-23.8c3.3-7.1,9.2-17.6,7.5-25.6c-0.4-1.9-1.2-3.8-2.4-5.3C511.6,398.7,507.5,396.6,503.2,396.6z"/>
	</g>
	<g>
		<g>
			
				<linearGradient id="SVGID_00000142893937314307580120000016792070474399519107_" gradientUnits="userSpaceOnUse" x1="678.4543" y1="82.5217" x2="678.4543" y2="210.949">
				<stop  offset="0" style="stop-color:#F69220"/>
				<stop  offset="0.2863" style="stop-color:#F68E20"/>
				<stop  offset="0.5401" style="stop-color:#F48421"/>
				<stop  offset="0.7807" style="stop-color:#F37221"/>
				<stop  offset="1" style="stop-color:#F05A22"/>
			</linearGradient>
			<path style="fill:url(#SVGID_00000142893937314307580120000016792070474399519107_);" d="M636.1,95h26.7v93.6h57.9v21.8h-84.5
				L636.1,95L636.1,95z"/>
			
				<linearGradient id="SVGID_00000085210925782373363750000017832557855682561714_" gradientUnits="userSpaceOnUse" x1="786.2969" y1="82.5217" x2="786.2969" y2="210.949">
				<stop  offset="0" style="stop-color:#F69220"/>
				<stop  offset="0.2863" style="stop-color:#F68E20"/>
				<stop  offset="0.5401" style="stop-color:#F48421"/>
				<stop  offset="0.7807" style="stop-color:#F37221"/>
				<stop  offset="1" style="stop-color:#F05A22"/>
			</linearGradient>
			<path style="fill:url(#SVGID_00000085210925782373363750000017832557855682561714_);" d="M812.7,185.7h-53.6l-10.2,24.8h-27.3
				L773,95.1h26.3L851,210.5h-28L812.7,185.7z M804.3,165.5L786,121.3l-18.3,44.2H804.3z"/>
			
				<linearGradient id="SVGID_00000069378760484502802510000013601622277397961607_" gradientUnits="userSpaceOnUse" x1="914.1011" y1="82.5217" x2="914.1011" y2="210.949">
				<stop  offset="0" style="stop-color:#F69220"/>
				<stop  offset="0.2863" style="stop-color:#F68E20"/>
				<stop  offset="0.5401" style="stop-color:#F48421"/>
				<stop  offset="0.7807" style="stop-color:#F37221"/>
				<stop  offset="1" style="stop-color:#F05A22"/>
			</linearGradient>
			<path style="fill:url(#SVGID_00000069378760484502802510000013601622277397961607_);" d="M936.6,210.5l-22.3-32.1H913h-23.3v32.1
				H863V95h50c10.2,0,19.1,1.7,26.6,5.1c7.5,3.4,13.4,8.3,17.4,14.5c4.1,6.3,6.1,13.7,6.1,22.3s-2.1,16-6.2,22.2
				c-4.1,6.2-10,11-17.6,14.3l25.9,37.1L936.6,210.5L936.6,210.5z M929.8,122c-4.2-3.5-10.3-5.2-18.3-5.2h-21.8V157h21.8
				c8,0,14.1-1.8,18.3-5.3c4.2-3.5,6.3-8.5,6.3-14.9C936.1,130.5,934,125.5,929.8,122z"/>
			
				<linearGradient id="SVGID_00000090294238063980475540000010778198513589273002_" gradientUnits="userSpaceOnUse" x1="1033.7709" y1="82.5217" x2="1033.7709" y2="210.949">
				<stop  offset="0" style="stop-color:#F69220"/>
				<stop  offset="0.2863" style="stop-color:#F68E20"/>
				<stop  offset="0.5401" style="stop-color:#F48421"/>
				<stop  offset="0.7807" style="stop-color:#F37221"/>
				<stop  offset="1" style="stop-color:#F05A22"/>
			</linearGradient>
			<path style="fill:url(#SVGID_00000090294238063980475540000010778198513589273002_);" d="M1060.2,185.7h-53.6l-10.2,24.8h-27.3
				l51.4-115.4h26.3l51.6,115.4h-28L1060.2,185.7z M1051.8,165.5l-18.3-44.2l-18.3,44.2H1051.8z"/>
			
				<linearGradient id="SVGID_00000178926118518775479010000004929644067726335649_" gradientUnits="userSpaceOnUse" x1="1152.1433" y1="82.5217" x2="1152.1433" y2="210.949">
				<stop  offset="0" style="stop-color:#F69220"/>
				<stop  offset="0.2863" style="stop-color:#F68E20"/>
				<stop  offset="0.5401" style="stop-color:#F48421"/>
				<stop  offset="0.7807" style="stop-color:#F37221"/>
				<stop  offset="1" style="stop-color:#F05A22"/>
			</linearGradient>
			<path style="fill:url(#SVGID_00000178926118518775479010000004929644067726335649_);" d="M1215.2,95l-50,115.4h-26.3L1089.1,95
				h28.8l35.1,82.4l35.6-82.4C1188.7,95,1215.2,95,1215.2,95z"/>
			
				<linearGradient id="SVGID_00000129893327685576905680000013260418391324412052_" gradientUnits="userSpaceOnUse" x1="1269.4677" y1="82.5217" x2="1269.4677" y2="210.949">
				<stop  offset="0" style="stop-color:#F69220"/>
				<stop  offset="0.2863" style="stop-color:#F68E20"/>
				<stop  offset="0.5401" style="stop-color:#F48421"/>
				<stop  offset="0.7807" style="stop-color:#F37221"/>
				<stop  offset="1" style="stop-color:#F05A22"/>
			</linearGradient>
			<path style="fill:url(#SVGID_00000129893327685576905680000013260418391324412052_);" d="M1314.1,189v21.5h-89.3V95h87.2v21.5
				h-60.7v25.1h53.6v20.8h-53.6V189L1314.1,189L1314.1,189z"/>
			
				<linearGradient id="SVGID_00000073710563663566180570000015974323865501161102_" gradientUnits="userSpaceOnUse" x1="1377.7096" y1="82.5217" x2="1377.7096" y2="210.949">
				<stop  offset="0" style="stop-color:#F69220"/>
				<stop  offset="0.2863" style="stop-color:#F68E20"/>
				<stop  offset="0.5401" style="stop-color:#F48421"/>
				<stop  offset="0.7807" style="stop-color:#F37221"/>
				<stop  offset="1" style="stop-color:#F05A22"/>
			</linearGradient>
			<path style="fill:url(#SVGID_00000073710563663566180570000015974323865501161102_);" d="M1335.4,95h26.7v93.6h57.9v21.8h-84.5
				L1335.4,95L1335.4,95z"/>
			
				<linearGradient id="SVGID_00000036223380835083381080000011872058973020869822_" gradientUnits="userSpaceOnUse" x1="1539.6482" y1="82.5217" x2="1539.6482" y2="210.949">
				<stop  offset="0" style="stop-color:#F69220"/>
				<stop  offset="0.2863" style="stop-color:#F68E20"/>
				<stop  offset="0.5401" style="stop-color:#F48421"/>
				<stop  offset="0.7807" style="stop-color:#F37221"/>
				<stop  offset="1" style="stop-color:#F05A22"/>
			</linearGradient>
			<path style="fill:url(#SVGID_00000036223380835083381080000011872058973020869822_);" d="M1481.6,95h52.4
				c12.6,0,23.6,2.4,33.2,7.2c9.6,4.8,17.1,11.5,22.5,20.2s8,18.8,8,30.3s-2.7,21.7-8,30.3c-5.3,8.7-12.8,15.4-22.5,20.2
				c-9.6,4.8-20.7,7.2-33.2,7.2h-52.4V95z M1532.7,188.5c11.6,0,20.8-3.2,27.6-9.7c6.9-6.4,10.3-15.2,10.3-26.1
				c0-11-3.4-19.7-10.3-26.1c-6.9-6.4-16.1-9.7-27.6-9.7h-24.5v71.6L1532.7,188.5L1532.7,188.5z"/>
			
				<linearGradient id="SVGID_00000174594973762963238540000005333779650069984937_" gradientUnits="userSpaceOnUse" x1="1670.7458" y1="82.5217" x2="1670.7458" y2="210.949">
				<stop  offset="0" style="stop-color:#F69220"/>
				<stop  offset="0.2863" style="stop-color:#F68E20"/>
				<stop  offset="0.5401" style="stop-color:#F48421"/>
				<stop  offset="0.7807" style="stop-color:#F37221"/>
				<stop  offset="1" style="stop-color:#F05A22"/>
			</linearGradient>
			<path style="fill:url(#SVGID_00000174594973762963238540000005333779650069984937_);" d="M1718.1,160.9
				c3.7,4.9,5.6,10.9,5.6,18.1c0,10.1-3.9,17.9-11.8,23.4c-7.9,5.5-19.4,8.2-34.3,8.2h-59.7V95h56.4c14.1,0,24.9,2.7,32.4,8.1
				c7.5,5.4,11.3,12.7,11.3,22c0,5.6-1.4,10.6-4,15c-2.7,4.4-6.5,7.9-11.3,10.4C1709.2,152.5,1714.4,156,1718.1,160.9z
				 M1644.4,115.2v27.2h26.5c6.6,0,11.6-1.2,15-3.5c3.4-2.3,5.1-5.7,5.1-10.2c0-4.5-1.7-7.9-5.1-10.2c-3.4-2.3-8.4-3.4-15-3.4
				H1644.4z M1691.4,186.8c3.6-2.3,5.4-5.9,5.4-10.7c0-9.6-7.1-14.4-21.3-14.4h-31.1v28.5h31.1
				C1682.5,190.3,1687.9,189.2,1691.4,186.8z"/>
		</g>
		<g>
			
				<linearGradient id="SVGID_00000158744907255008122360000002411457170199569854_" gradientUnits="userSpaceOnUse" x1="687.1875" y1="215.2446" x2="687.1875" y2="430.5598">
				<stop  offset="0" style="stop-color:#68B2FF"/>
				<stop  offset="1" style="stop-color:#0065C3"/>
			</linearGradient>
			<path style="fill:url(#SVGID_00000158744907255008122360000002411457170199569854_);" d="M713.7,381.1h-53.6l-10.2,24.8h-27.4
				l51.4-115.4h26.4l51.6,115.4h-28L713.7,381.1z M705.2,360.8l-18.3-44.2l-18.3,44.2H705.2z"/>
			
				<linearGradient id="SVGID_00000120530798687884280480000001801238960747152826_" gradientUnits="userSpaceOnUse" x1="812.746" y1="215.2446" x2="812.746" y2="430.5598">
				<stop  offset="0" style="stop-color:#68B2FF"/>
				<stop  offset="1" style="stop-color:#0065C3"/>
			</linearGradient>
			<path style="fill:url(#SVGID_00000120530798687884280480000001801238960747152826_);" d="M774.3,394.1
				c-9.2-9.1-13.8-22.2-13.8-39.1v-64.7h26.6V354c0,20.7,8.6,31,25.8,31c8.4,0,14.8-2.5,19.2-7.5c4.4-5,6.6-12.9,6.6-23.5v-63.7H865
				v64.7c0,17-4.6,29.9-13.8,39.1c-9.2,9.1-22.1,13.7-38.5,13.7C796.2,407.8,783.5,403.2,774.3,394.1z"/>
			
				<linearGradient id="SVGID_00000133517807730404561250000011968282215431505568_" gradientUnits="userSpaceOnUse" x1="949.4332" y1="215.2446" x2="949.4332" y2="430.5598">
				<stop  offset="0" style="stop-color:#68B2FF"/>
				<stop  offset="1" style="stop-color:#0065C3"/>
			</linearGradient>
			<path style="fill:url(#SVGID_00000133517807730404561250000011968282215431505568_);" d="M891.3,290.4h52.5
				c12.6,0,23.6,2.4,33.2,7.2c9.6,4.8,17.1,11.5,22.5,20.2c5.3,8.7,8,18.8,8,30.3s-2.7,21.7-8,30.3c-5.3,8.7-12.8,15.4-22.5,20.2
				c-9.6,4.8-20.7,7.2-33.2,7.2h-52.4L891.3,290.4L891.3,290.4z M942.4,383.9c11.6,0,20.8-3.2,27.6-9.7c6.9-6.4,10.3-15.2,10.3-26.1
				c0-11-3.4-19.7-10.3-26.1c-6.9-6.4-16.1-9.7-27.6-9.7H918v71.6L942.4,383.9L942.4,383.9z"/>
			
				<linearGradient id="SVGID_00000075861343225702452710000008932366747425596565_" gradientUnits="userSpaceOnUse" x1="1040.9572" y1="215.2446" x2="1040.9572" y2="430.5598">
				<stop  offset="0" style="stop-color:#68B2FF"/>
				<stop  offset="1" style="stop-color:#0065C3"/>
			</linearGradient>
			<path style="fill:url(#SVGID_00000075861343225702452710000008932366747425596565_);" d="M1027.6,290.4h26.7v115.4h-26.7V290.4z"
				/>
			
				<linearGradient id="SVGID_00000178182314051561356850000002109977427754408337_" gradientUnits="userSpaceOnUse" x1="1118.9072" y1="215.2446" x2="1118.9072" y2="430.5598">
				<stop  offset="0" style="stop-color:#68B2FF"/>
				<stop  offset="1" style="stop-color:#0065C3"/>
			</linearGradient>
			<path style="fill:url(#SVGID_00000178182314051561356850000002109977427754408337_);" d="M1105.5,312.2h-36.9v-21.8h100.6v21.8
				h-36.9v93.6h-26.7V312.2z"/>
			
				<linearGradient id="SVGID_00000149369787667299518240000013136740928517849015_" gradientUnits="userSpaceOnUse" x1="1237.7787" y1="215.2446" x2="1237.7787" y2="430.5598">
				<stop  offset="0" style="stop-color:#68B2FF"/>
				<stop  offset="1" style="stop-color:#0065C3"/>
			</linearGradient>
			<path style="fill:url(#SVGID_00000149369787667299518240000013136740928517849015_);" d="M1205.3,400
				c-9.6-5.2-17.2-12.3-22.6-21.4c-5.4-9.1-8.2-19.3-8.2-30.5c0-11.3,2.7-21.6,8.2-30.5c5.5-9.1,13-16.2,22.6-21.4
				c9.6-5.2,20.5-7.8,32.4-7.8c12,0,22.8,2.6,32.3,7.8c9.6,5.2,17.1,12.3,22.6,21.4c5.5,9.1,8.3,19.3,8.3,30.5
				c0,11.3-2.8,21.6-8.3,30.5c-5.5,9.1-13,16.2-22.6,21.4c-9.6,5.2-20.4,7.8-32.3,7.8C1225.8,407.8,1215,405.2,1205.3,400z
				 M1256.2,380.4c5.5-3.1,9.8-7.5,13-13.1c3.2-5.6,4.7-12,4.7-19.2s-1.6-13.5-4.7-19.2c-3.1-5.6-7.5-10-13-13.1
				c-5.5-3.1-11.7-4.7-18.5-4.7s-13,1.6-18.5,4.7c-5.5,3.1-9.8,7.5-13,13.1c-3.1,5.6-4.7,12-4.7,19.2s1.6,13.5,4.7,19.2
				c3.1,5.7,7.5,10,13,13.1c5.5,3.1,11.7,4.7,18.5,4.7C1244.6,385.1,1250.8,383.5,1256.2,380.4z"/>
			
				<linearGradient id="SVGID_00000065040253376022133560000002416674397247877760_" gradientUnits="userSpaceOnUse" x1="1372.1201" y1="215.2446" x2="1372.1201" y2="430.5598">
				<stop  offset="0" style="stop-color:#68B2FF"/>
				<stop  offset="1" style="stop-color:#0065C3"/>
			</linearGradient>
			<path style="fill:url(#SVGID_00000065040253376022133560000002416674397247877760_);" d="M1394.6,405.8l-22.3-32.1h-1.3h-23.3
				v32.1H1321V290.4h50c10.2,0,19.1,1.7,26.6,5.1c7.5,3.4,13.4,8.3,17.4,14.5c4.1,6.3,6.1,13.7,6.1,22.3c0,8.6-2.1,16-6.2,22.2
				c-4.1,6.2-10,11-17.6,14.3l25.9,37.1H1394.6z M1387.8,317.4c-4.2-3.5-10.3-5.2-18.3-5.2h-21.8v40.2h21.8c8,0,14.1-1.8,18.3-5.3
				c4.2-3.5,6.3-8.5,6.3-14.9C1394.1,325.8,1392,320.9,1387.8,317.4z"/>
		</g>
	</g>
</g>
</svg>
