<?xml version="1.0" encoding="utf-8"?>
<!-- Generator: Adobe Illustrator 27.4.1, SVG Export Plug-In . SVG Version: 6.00 Build 0)  -->
<svg version="1.1" id="Layer_1" xmlns="http://www.w3.org/2000/svg" xmlns:xlink="http://www.w3.org/1999/xlink" x="0px" y="0px"
	 width="467.5px" height="520px" viewBox="0 0 467.5 520" style="enable-background:new 0 0 467.5 520;" xml:space="preserve">
<style type="text/css">
	.st0{fill:url(#SVGID_1_);}
	.st1{fill:url(#SVGID_00000085962173327796620770000006719235210218489774_);}
	.st2{fill:url(#SVGID_00000026881025440920836720000018369031504014600081_);}
	.st3{fill:url(#SVGID_00000069356158123275177950000012193053319838985625_);}
	.st4{fill:url(#SVGID_00000176741303859286406190000006084243699295909541_);}
	.st5{fill:url(#SVGID_00000067940896693582231340000001491504209620794272_);}
	.st6{fill:url(#SVGID_00000013881311831613348030000005087669147935634610_);}
	.st7{fill:url(#SVGID_00000059311590776242201980000006879712373647359139_);}
	.st8{fill:url(#SVGID_00000155121825186895340630000005691908277240015773_);}
	.st9{fill:url(#SVGID_00000178913586791994662900000018199295516027176073_);}
	.st10{fill:url(#SVGID_00000078031781018482188850000002990443977369061782_);}
	.st11{fill:url(#SVGID_00000146462844881257052030000010615989170950982816_);}
	.st12{fill:url(#SVGID_00000123430194058877951320000001529877007323922576_);}
	.st13{fill:url(#SVGID_00000040553441339669209920000009967178138149043083_);}
	.st14{fill:url(#SVGID_00000011726329759475207310000016881442881850201218_);}
	.st15{fill:url(#SVGID_00000132795682455032396700000001199770747225184413_);}
	.st16{fill:url(#SVGID_00000046311557391778193960000003010151918962658219_);}
	.st17{fill:url(#SVGID_00000063619608488778089120000014240437629002304700_);}
	.st18{fill:url(#SVGID_00000124121966030562067930000010046587690306773662_);}
	.st19{fill:url(#SVGID_00000045579303533107372360000013015482095276025988_);}
	.st20{fill:url(#SVGID_00000000189550364547814890000006265089371794645165_);}
</style>
<g>
	<g>
		<linearGradient id="SVGID_1_" gradientUnits="userSpaceOnUse" x1="64.775" y1="41.1" x2="372.425" y2="41.1">
			<stop  offset="0" style="stop-color:#F69220"/>
			<stop  offset="0.2863" style="stop-color:#F68E20"/>
			<stop  offset="0.5401" style="stop-color:#F48421"/>
			<stop  offset="0.7807" style="stop-color:#F37221"/>
			<stop  offset="1" style="stop-color:#F05A22"/>
		</linearGradient>
		<path class="st0" d="M109.9,69.2c20.8,5.9,56.5,13,108.7,13s87.9-7.1,108.7-13c14.8-4.2,40.3-13.2,44.6-25.1c0.7-1.9,0.7-4.1,0-6
			c-4.3-12-29.8-20.9-44.6-25.1C306.5,7.1,270.8,0,218.6,0s-87.9,7.1-108.7,13c-14.8,4.2-40.3,13.2-44.6,25.1c-0.7,1.9-0.7,4.1,0,6
			C69.5,56.1,95.1,65,109.9,69.2z"/>
		
			<linearGradient id="SVGID_00000104697293822015566320000018317485522034835115_" gradientUnits="userSpaceOnUse" x1="63.5" y1="276.3535" x2="204.7273" y2="276.3535" gradientTransform="matrix(1 0 0 -1 0 522)">
			<stop  offset="0" style="stop-color:#68B2FF"/>
			<stop  offset="1" style="stop-color:#0065C3"/>
		</linearGradient>
		<path style="fill:url(#SVGID_00000104697293822015566320000018317485522034835115_);" d="M191.8,242.5c0-8.9,0.7-16.6,2.1-23.4
			c0.5-2.5-0.1-5.2-1.7-7.2c-1.6-2.1-4-3.3-6.5-3.5c-46.2-2.8-86-11.3-109.2-23.3c-4.8-2.5-11.1-0.3-13,6.1V268l0,0
			c2.5,11.7,29.1,21.3,39.6,24.7c17.5,5.6,47.7,12.7,92.3,14.5c0.1,0,0.2,0,0.4,0c3,0,5.9-1.5,7.5-4.1c1.7-2.7,1.9-6,0.5-8.9
			C195.8,278.7,191.8,261.2,191.8,242.5z"/>
		
			<linearGradient id="SVGID_00000150092376494765659780000005354485124557314710_" gradientUnits="userSpaceOnUse" x1="63.5" y1="389.0445" x2="372.3" y2="389.0445" gradientTransform="matrix(1 0 0 -1 0 522)">
			<stop  offset="0" style="stop-color:#68B2FF"/>
			<stop  offset="1" style="stop-color:#0065C3"/>
		</linearGradient>
		<path style="fill:url(#SVGID_00000150092376494765659780000005354485124557314710_);" d="M103.3,180.1
			c17.6,5.6,47.9,12.7,92.7,14.5c0.1,0,0.2,0,0.4,0c3.3,0,6.4-1.9,7.9-4.8c19.6-37.9,60-62.4,102.8-62.4c18.3,0,35.9,4.2,52.2,12.6
			c2.8,1.4,6.1,1.3,8.7-0.3c2.7-1.6,4.3-4.5,4.3-7.6l-0.2-51.8c0-3.1-1.6-6-4.2-7.6s-5.9-1.8-8.7-0.4C328.8,87.5,276,96.6,218,96.6
			c-58.2,0-111.9-9.4-143.2-25.1c-6.6-1.2-11.3,3.5-11.3,8.8v75l0,0C66,167,92.7,176.7,103.3,180.1z"/>
		<g>
			
				<linearGradient id="SVGID_00000058559644231962498500000009375614994752386690_" gradientUnits="userSpaceOnUse" x1="210.295" y1="193.4008" x2="403.9607" y2="193.4008">
				<stop  offset="0" style="stop-color:#F69220"/>
				<stop  offset="0.2863" style="stop-color:#F68E20"/>
				<stop  offset="0.5401" style="stop-color:#F48421"/>
				<stop  offset="0.7807" style="stop-color:#F37221"/>
				<stop  offset="1" style="stop-color:#F05A22"/>
			</linearGradient>
			<path style="fill:url(#SVGID_00000058559644231962498500000009375614994752386690_);" d="M403.9,231.9
				c-1.6-15.1-6.9-29.7-15.2-42.4c-8.2-12.5-19.2-23-32-30.7c-23.9-14.3-53.6-17.7-80-8.8c-17.6,5.9-33.5,16.9-45.2,31.4
				c-7.7,9.5-13.6,20.5-17.3,32.2c-1.8,5.8-3.6,12.3-3.9,18.4c-0.1,3.4,1.3,6.6,4.2,8.4c1.5,0.9,3.2,1.3,4.9,1.3h44.4
				c2.3,0,4.5-0.9,6.2-2.5l30.8-29.9c4.3-4.1,11.1-4,15.2,0.4l27.1,29.1c1.7,1.8,4.1,2.9,6.5,2.9h45.3c1.7,0,3.4-0.4,4.9-1.3
				C402.7,238.6,404.3,235.3,403.9,231.9z"/>
			
				<linearGradient id="SVGID_00000100361542728186037530000001957841760083943565_" gradientUnits="userSpaceOnUse" x1="213.8257" y1="285.3842" x2="400.6918" y2="285.3842">
				<stop  offset="0" style="stop-color:#F69220"/>
				<stop  offset="0.2863" style="stop-color:#F68E20"/>
				<stop  offset="0.5401" style="stop-color:#F48421"/>
				<stop  offset="0.7807" style="stop-color:#F37221"/>
				<stop  offset="1" style="stop-color:#F05A22"/>
			</linearGradient>
			<path style="fill:url(#SVGID_00000100361542728186037530000001957841760083943565_);" d="M391.8,259.4H338l-23.9-25.7
				c-1.6-1.8-3.9-2.8-6.3-2.8c-2.4-0.1-4.7,0.8-6.4,2.5l-26.8,26h-52c-2.8,0-5.5,1.3-7.2,3.6c-2.7,3.7-1.4,8.1,0,12.1
				c5.5,15.3,14.6,28.9,26.7,39.8c13.4,12,29.9,20.1,47.6,23.4c24.8,4.6,51.2-1,72.1-15.1c9.6-6.5,18.1-14.8,24.8-24.3
				c3.5-4.9,6.5-10.1,9-15.6c2.1-4.6,6-11.5,4.9-16.7c-0.3-1.3-0.8-2.5-1.6-3.5C397.3,260.7,394.7,259.4,391.8,259.4z"/>
		</g>
	</g>
	<g>
		<g>
			
				<linearGradient id="SVGID_00000081637866992483209350000013669522903238462624_" gradientUnits="userSpaceOnUse" x1="18.2068" y1="380.1284" x2="18.2068" y2="435.3331">
				<stop  offset="0" style="stop-color:#F69220"/>
				<stop  offset="0.2863" style="stop-color:#F68E20"/>
				<stop  offset="0.5401" style="stop-color:#F48421"/>
				<stop  offset="0.7807" style="stop-color:#F37221"/>
				<stop  offset="1" style="stop-color:#F05A22"/>
			</linearGradient>
			<path style="fill:url(#SVGID_00000081637866992483209350000013669522903238462624_);" d="M0,385.5h11.5v40.2h24.9v9.4H0.1
				L0,385.5L0,385.5z"/>
			
				<linearGradient id="SVGID_00000021823140955534216910000013845238332412566441_" gradientUnits="userSpaceOnUse" x1="64.5632" y1="380.1284" x2="64.5632" y2="435.3331">
				<stop  offset="0" style="stop-color:#F69220"/>
				<stop  offset="0.2863" style="stop-color:#F68E20"/>
				<stop  offset="0.5401" style="stop-color:#F48421"/>
				<stop  offset="0.7807" style="stop-color:#F37221"/>
				<stop  offset="1" style="stop-color:#F05A22"/>
			</linearGradient>
			<path style="fill:url(#SVGID_00000021823140955534216910000013845238332412566441_);" d="M75.9,424.5h-23l-4.4,10.6H36.7
				l22.1-49.6h11.3l22.2,49.6H80.3L75.9,424.5z M72.3,415.8l-7.9-19l-7.9,19H72.3z"/>
			
				<linearGradient id="SVGID_00000144302978386983290390000006065224642943304380_" gradientUnits="userSpaceOnUse" x1="119.5001" y1="380.1284" x2="119.5001" y2="435.3331">
				<stop  offset="0" style="stop-color:#F69220"/>
				<stop  offset="0.2863" style="stop-color:#F68E20"/>
				<stop  offset="0.5401" style="stop-color:#F48421"/>
				<stop  offset="0.7807" style="stop-color:#F37221"/>
				<stop  offset="1" style="stop-color:#F05A22"/>
			</linearGradient>
			<path style="fill:url(#SVGID_00000144302978386983290390000006065224642943304380_);" d="M129.2,435.1l-9.6-13.8H119h-10v13.8
				H97.5v-49.6H119c4.4,0,8.2,0.7,11.5,2.2c3.2,1.5,5.7,3.6,7.5,6.2c1.8,2.7,2.6,5.9,2.6,9.6s-0.9,6.9-2.7,9.5
				c-1.8,2.7-4.3,4.7-7.6,6.1l11.1,16L129.2,435.1L129.2,435.1z M126.2,397.1c-1.8-1.5-4.4-2.2-7.9-2.2H109v17.3h9.4
				c3.4,0,6-0.8,7.9-2.3c1.8-1.5,2.7-3.6,2.7-6.4C128.9,400.7,128,398.6,126.2,397.1z"/>
			
				<linearGradient id="SVGID_00000157300553540846285820000007028116991917165245_" gradientUnits="userSpaceOnUse" x1="170.9404" y1="380.1284" x2="170.9404" y2="435.3331">
				<stop  offset="0" style="stop-color:#F69220"/>
				<stop  offset="0.2863" style="stop-color:#F68E20"/>
				<stop  offset="0.5401" style="stop-color:#F48421"/>
				<stop  offset="0.7807" style="stop-color:#F37221"/>
				<stop  offset="1" style="stop-color:#F05A22"/>
			</linearGradient>
			<path style="fill:url(#SVGID_00000157300553540846285820000007028116991917165245_);" d="M182.3,424.5h-23l-4.4,10.6h-11.8
				l22.1-49.6h11.3l22.2,49.6h-12.1L182.3,424.5z M178.7,415.8l-7.9-19l-7.9,19H178.7z"/>
			
				<linearGradient id="SVGID_00000131368996106146090660000005037140964707408031_" gradientUnits="userSpaceOnUse" x1="221.8231" y1="380.1284" x2="221.8231" y2="435.3331">
				<stop  offset="0" style="stop-color:#F69220"/>
				<stop  offset="0.2863" style="stop-color:#F68E20"/>
				<stop  offset="0.5401" style="stop-color:#F48421"/>
				<stop  offset="0.7807" style="stop-color:#F37221"/>
				<stop  offset="1" style="stop-color:#F05A22"/>
			</linearGradient>
			<path style="fill:url(#SVGID_00000131368996106146090660000005037140964707408031_);" d="M248.9,385.5l-21.5,49.6h-11.3
				l-21.4-49.6h12.4l15.1,35.4l15.3-35.4C237.5,385.5,248.9,385.5,248.9,385.5z"/>
			
				<linearGradient id="SVGID_00000096770481475356339970000000025548228335754934_" gradientUnits="userSpaceOnUse" x1="272.2552" y1="380.1284" x2="272.2552" y2="435.3331">
				<stop  offset="0" style="stop-color:#F69220"/>
				<stop  offset="0.2863" style="stop-color:#F68E20"/>
				<stop  offset="0.5401" style="stop-color:#F48421"/>
				<stop  offset="0.7807" style="stop-color:#F37221"/>
				<stop  offset="1" style="stop-color:#F05A22"/>
			</linearGradient>
			<path style="fill:url(#SVGID_00000096770481475356339970000000025548228335754934_);" d="M291.5,425.9v9.2h-38.4v-49.6h37.5v9.2
				h-26.1v10.8h23v8.9h-23v11.5H291.5L291.5,425.9z"/>
			
				<linearGradient id="SVGID_00000020369880624908659740000010302254075662542495_" gradientUnits="userSpaceOnUse" x1="318.7832" y1="380.1284" x2="318.7832" y2="435.3331">
				<stop  offset="0" style="stop-color:#F69220"/>
				<stop  offset="0.2863" style="stop-color:#F68E20"/>
				<stop  offset="0.5401" style="stop-color:#F48421"/>
				<stop  offset="0.7807" style="stop-color:#F37221"/>
				<stop  offset="1" style="stop-color:#F05A22"/>
			</linearGradient>
			<path style="fill:url(#SVGID_00000020369880624908659740000010302254075662542495_);" d="M300.6,385.5h11.5v40.2H337v9.4h-36.3
				L300.6,385.5L300.6,385.5z"/>
			
				<linearGradient id="SVGID_00000005956488613889324910000008431744138163812501_" gradientUnits="userSpaceOnUse" x1="388.3929" y1="380.1284" x2="388.3929" y2="435.3331">
				<stop  offset="0" style="stop-color:#F69220"/>
				<stop  offset="0.2863" style="stop-color:#F68E20"/>
				<stop  offset="0.5401" style="stop-color:#F48421"/>
				<stop  offset="0.7807" style="stop-color:#F37221"/>
				<stop  offset="1" style="stop-color:#F05A22"/>
			</linearGradient>
			<path style="fill:url(#SVGID_00000005956488613889324910000008431744138163812501_);" d="M363.4,385.5H386c5.4,0,10.1,1,14.3,3.1
				c4.1,2.1,7.3,4.9,9.7,8.7c2.3,3.7,3.4,8.1,3.4,13s-1.2,9.3-3.4,13s-5.5,6.6-9.7,8.7c-4.1,2.1-8.9,3.1-14.3,3.1h-22.5V385.5z
				 M385.4,425.7c5,0,8.9-1.4,11.9-4.2c3-2.7,4.4-6.5,4.4-11.2s-1.5-8.5-4.4-11.2c-3-2.7-6.9-4.2-11.9-4.2h-10.5v30.8L385.4,425.7
				L385.4,425.7z"/>
			
				<linearGradient id="SVGID_00000139985932705270914190000002425310493304910514_" gradientUnits="userSpaceOnUse" x1="444.7455" y1="380.1284" x2="444.7455" y2="435.3331">
				<stop  offset="0" style="stop-color:#F69220"/>
				<stop  offset="0.2863" style="stop-color:#F68E20"/>
				<stop  offset="0.5401" style="stop-color:#F48421"/>
				<stop  offset="0.7807" style="stop-color:#F37221"/>
				<stop  offset="1" style="stop-color:#F05A22"/>
			</linearGradient>
			<path style="fill:url(#SVGID_00000139985932705270914190000002425310493304910514_);" d="M465.1,413.8c1.6,2.1,2.4,4.7,2.4,7.8
				c0,4.3-1.7,7.7-5.1,10c-3.4,2.4-8.3,3.5-14.8,3.5H422v-49.6h24.2c6,0,10.7,1.2,13.9,3.5c3.2,2.3,4.8,5.4,4.8,9.4
				c0,2.4-0.6,4.5-1.7,6.4c-1.2,1.9-2.8,3.4-4.8,4.5C461.3,410.2,463.5,411.7,465.1,413.8z M433.4,394.2v11.7h11.4
				c2.8,0,5-0.5,6.4-1.5c1.5-1,2.2-2.4,2.2-4.4c0-1.9-0.7-3.4-2.2-4.4c-1.5-1-3.6-1.5-6.4-1.5H433.4z M453.6,425
				c1.5-1,2.3-2.5,2.3-4.6c0-4.1-3-6.2-9.1-6.2h-13.4v12.3h13.4C449.8,426.5,452.1,426,453.6,425z"/>
		</g>
		<g>
			
				<linearGradient id="SVGID_00000079457445918171120730000000365423006477908872_" gradientUnits="userSpaceOnUse" x1="89.4682" y1="437.1796" x2="89.4682" y2="529.7333">
				<stop  offset="0" style="stop-color:#68B2FF"/>
				<stop  offset="1" style="stop-color:#0065C3"/>
			</linearGradient>
			<path style="fill:url(#SVGID_00000079457445918171120730000000365423006477908872_);" d="M100.9,508.5h-23l-4.4,10.6H61.6
				l22.1-49.6h11.4l22.2,49.6h-12.1L100.9,508.5z M97.2,499.7l-7.9-19l-7.9,19H97.2z"/>
			
				<linearGradient id="SVGID_00000081617731014121035780000000309196401698866340_" gradientUnits="userSpaceOnUse" x1="143.4398" y1="437.1796" x2="143.4398" y2="529.7333">
				<stop  offset="0" style="stop-color:#68B2FF"/>
				<stop  offset="1" style="stop-color:#0065C3"/>
			</linearGradient>
			<path style="fill:url(#SVGID_00000081617731014121035780000000309196401698866340_);" d="M126.9,514.1c-3.9-3.9-5.9-9.5-5.9-16.8
				v-27.8h11.5v27.4c0,8.9,3.7,13.3,11.1,13.3c3.6,0,6.3-1.1,8.2-3.2s2.8-5.5,2.8-10.1v-27.4h11.3v27.8c0,7.3-2,12.9-5.9,16.8
				c-3.9,3.9-9.5,5.9-16.6,5.9C136.3,520,130.8,518,126.9,514.1z"/>
			
				<linearGradient id="SVGID_00000097495049941431966130000013762401497307158453_" gradientUnits="userSpaceOnUse" x1="202.1951" y1="437.1796" x2="202.1951" y2="529.7333">
				<stop  offset="0" style="stop-color:#68B2FF"/>
				<stop  offset="1" style="stop-color:#0065C3"/>
			</linearGradient>
			<path style="fill:url(#SVGID_00000097495049941431966130000013762401497307158453_);" d="M177.2,469.5h22.6
				c5.4,0,10.1,1,14.3,3.1c4.1,2.1,7.3,4.9,9.7,8.7c2.3,3.7,3.4,8.1,3.4,13s-1.2,9.3-3.4,13c-2.3,3.7-5.5,6.6-9.7,8.7
				c-4.1,2.1-8.9,3.1-14.3,3.1h-22.5L177.2,469.5L177.2,469.5z M199.2,509.7c5,0,8.9-1.4,11.9-4.2c3-2.7,4.4-6.5,4.4-11.2
				s-1.5-8.5-4.4-11.2c-3-2.7-6.9-4.2-11.9-4.2h-10.5v30.8L199.2,509.7L199.2,509.7z"/>
			
				<linearGradient id="SVGID_00000152975966041231191310000014608723539289050552_" gradientUnits="userSpaceOnUse" x1="241.5369" y1="437.1796" x2="241.5369" y2="529.7333">
				<stop  offset="0" style="stop-color:#68B2FF"/>
				<stop  offset="1" style="stop-color:#0065C3"/>
			</linearGradient>
			<path style="fill:url(#SVGID_00000152975966041231191310000014608723539289050552_);" d="M235.8,469.5h11.5v49.6h-11.5V469.5z"/>
			
				<linearGradient id="SVGID_00000103233809603638783210000011163741506358318004_" gradientUnits="userSpaceOnUse" x1="275.0439" y1="437.1796" x2="275.0439" y2="529.7333">
				<stop  offset="0" style="stop-color:#68B2FF"/>
				<stop  offset="1" style="stop-color:#0065C3"/>
			</linearGradient>
			<path style="fill:url(#SVGID_00000103233809603638783210000011163741506358318004_);" d="M269.3,478.9h-15.9v-9.4h43.2v9.4h-15.9
				v40.2h-11.5V478.9z"/>
			
				<linearGradient id="SVGID_00000070092419247306212320000007627760623546964900_" gradientUnits="userSpaceOnUse" x1="326.1411" y1="437.1796" x2="326.1411" y2="529.7333">
				<stop  offset="0" style="stop-color:#68B2FF"/>
				<stop  offset="1" style="stop-color:#0065C3"/>
			</linearGradient>
			<path style="fill:url(#SVGID_00000070092419247306212320000007627760623546964900_);" d="M312.2,516.6c-4.1-2.2-7.4-5.3-9.7-9.2
				c-2.3-3.9-3.5-8.3-3.5-13.1c0-4.8,1.2-9.3,3.5-13.1c2.4-3.9,5.6-7,9.7-9.2s8.8-3.3,13.9-3.3s9.8,1.1,13.9,3.3
				c4.1,2.2,7.3,5.3,9.7,9.2s3.6,8.3,3.6,13.1c0,4.8-1.2,9.3-3.6,13.1c-2.4,3.9-5.6,7-9.7,9.2c-4.1,2.2-8.8,3.3-13.9,3.3
				S316.4,518.8,312.2,516.6z M334.1,508.2c2.4-1.3,4.2-3.2,5.6-5.6c1.4-2.4,2-5.1,2-8.2s-0.7-5.8-2-8.2c-1.3-2.4-3.2-4.3-5.6-5.6
				s-5-2-7.9-2c-2.9,0-5.6,0.7-7.9,2s-4.2,3.2-5.6,5.6c-1.3,2.4-2,5.1-2,8.2s0.7,5.8,2,8.2c1.3,2.4,3.2,4.3,5.6,5.6s5,2,7.9,2
				C329.1,510.2,331.7,509.5,334.1,508.2z"/>
			
				<linearGradient id="SVGID_00000061468419287324278510000014228605732125904007_" gradientUnits="userSpaceOnUse" x1="383.888" y1="437.1796" x2="383.888" y2="529.7333">
				<stop  offset="0" style="stop-color:#68B2FF"/>
				<stop  offset="1" style="stop-color:#0065C3"/>
			</linearGradient>
			<path style="fill:url(#SVGID_00000061468419287324278510000014228605732125904007_);" d="M393.5,519.1l-9.6-13.8h-0.6h-10v13.8
				h-11.5v-49.6h21.5c4.4,0,8.2,0.7,11.5,2.2c3.2,1.5,5.7,3.6,7.5,6.2c1.8,2.7,2.6,5.9,2.6,9.6c0,3.7-0.9,6.9-2.7,9.5
				c-1.8,2.7-4.3,4.7-7.6,6.1l11.1,16H393.5z M390.6,481.1c-1.8-1.5-4.4-2.2-7.9-2.2h-9.4v17.3h9.4c3.4,0,6-0.8,7.9-2.3
				c1.8-1.5,2.7-3.6,2.7-6.4C393.3,484.7,392.4,482.6,390.6,481.1z"/>
		</g>
	</g>
</g>
</svg>
