<svg id="Check" xmlns="http://www.w3.org/2000/svg" width="20" height="19.973" viewBox="0 0 20 19.973">
  <path id="Background" d="M231,655.986A9.993,9.993,0,0,1,241,646h0a9.993,9.993,0,0,1,10,9.986h0a9.993,9.993,0,0,1-10,9.986h0a9.993,9.993,0,0,1-10-9.986Z" transform="translate(-231 -646)" fill="#70c043"/>
  <path id="Check-2" data-name="Check" d="M239.44,659.633a.7.7,0,0,1-.268-.053.464.464,0,0,1-.206-.16l-2.767-2.748a.738.738,0,0,1,0-1.008.675.675,0,0,1,.5-.2.727.727,0,0,1,.512.2l2.232,2.245,5.352-5.344a.748.748,0,0,1,.5-.206.618.618,0,0,1,.489.206.7.7,0,0,1,.214.511.649.649,0,0,1-.214.5l-5.856,5.848a.576.576,0,0,1-.222.16.7.7,0,0,1-.268.053Z" transform="translate(-231 -646.009)" fill="#fff"/>
</svg>
