<svg id="Check" xmlns="http://www.w3.org/2000/svg" width="20" height="19.972" viewBox="0 0 20 19.972">
  <path id="Background" d="M231,719.986A9.993,9.993,0,0,1,241,710h0a9.993,9.993,0,0,1,10,9.986h0a9.993,9.993,0,0,1-10,9.986h0a9.993,9.993,0,0,1-10-9.986Z" transform="translate(-231 -710)" fill="#cb3a31"/>
  <path id="Vector" d="M241,721.059l-3.3,3.3a.744.744,0,0,1-.542.233.742.742,0,0,1-.525-1.282l3.3-3.312-3.3-3.3a.763.763,0,0,1,0-1.065.671.671,0,0,1,.517-.216.782.782,0,0,1,.55.216l3.3,3.312,3.317-3.329a.716.716,0,0,1,.525-.216.74.74,0,0,1,.758.757.714.714,0,0,1-.217.524l-3.317,3.3,3.3,3.312a.742.742,0,0,1,.233.541.689.689,0,0,1-.233.524.7.7,0,0,1-.533.233.649.649,0,0,1-.517-.233Z" transform="translate(-231 -710.008)" fill="#fff"/>
</svg>
