<svg xmlns="http://www.w3.org/2000/svg" width="20" height="20" viewBox="0 0 20 20">
  <g id="noun-key-3890860" transform="translate(-97.995 -28.005)">
    <path id="Path_94462" data-name="Path 94462" d="M116.254,29.747a5.939,5.939,0,0,0-9.724,6.383.315.315,0,0,1-.067.34l-8.355,8.357A.383.383,0,0,0,98,45.1v2.525a.385.385,0,0,0,.383.383H100.9a.381.381,0,0,0,.27-.112l1.141-1.138a.265.265,0,0,1,.188-.078h1.331a.268.268,0,0,0,.267-.267V45.194a.384.384,0,0,1,.383-.386H105.7a.268.268,0,0,0,.267-.267V43.233a.268.268,0,0,1,.267-.267h1.332a.27.27,0,0,0,.27-.27V41.339a.268.268,0,0,1,.267-.267h1.332a.27.27,0,0,0,.27-.27v-.859a.372.372,0,0,1,.489-.353,5.94,5.94,0,0,0,6.055-9.843ZM99.688,46.7a.277.277,0,0,1-.392-.392l8.369-8.37c.061.067.119.139.186.206s.139.125.206.186Zm15.589-13.831a1.52,1.52,0,1,1,0-2.15A1.524,1.524,0,0,1,115.277,32.874Z" fill="#d1d1d1"/>
  </g>
</svg>
